<?xml version="1.0" standalone="no"?>
<!DOCTYPE svg PUBLIC "-//W3C//DTD SVG 20010904//EN"
 "http://www.w3.org/TR/2001/REC-SVG-20010904/DTD/svg10.dtd">
<svg version="1.0" xmlns="http://www.w3.org/2000/svg"
 width="144.000000pt" height="144.000000pt" viewBox="0 0 144.000000 144.000000"
 preserveAspectRatio="xMidYMid meet">

<g transform="translate(0.000000,144.000000) scale(0.100000,-0.100000)"
fill="#000000" stroke="none">
<path d="M867 901 c-123 -125 -153 -161 -129 -161 4 0 71 68 150 150 79 83
137 150 130 150 -8 0 -76 -62 -151 -139z"/>
<path d="M289 951 c-27 -28 -29 -34 -29 -115 0 -78 -2 -86 -25 -104 -24 -19
-36 -72 -16 -72 28 0 41 -34 41 -106 0 -94 16 -129 68 -145 21 -6 49 -9 62 -7
21 2 26 9 28 41 3 34 1 37 -23 37 -33 0 -45 31 -45 114 0 50 -4 67 -20 81
l-20 18 20 14 c17 12 20 25 20 84 0 82 11 109 45 109 22 0 25 4 25 40 l0 40
-51 0 c-43 0 -55 -5 -80 -29z"/>
<path d="M1044 966 c-13 -33 1 -61 31 -66 30 -5 30 -5 35 -87 4 -59 10 -86 23
-101 18 -20 18 -21 -2 -41 -17 -17 -21 -34 -21 -93 0 -83 -5 -95 -40 -99 -21
-3 -25 -9 -25 -39 l0 -35 52 0 c41 1 58 6 78 25 23 21 25 31 25 105 0 83 15
125 46 125 9 0 14 11 14 30 0 17 -4 30 -10 30 -5 0 -19 9 -30 20 -17 17 -20
33 -20 99 0 95 -4 107 -41 126 -37 19 -108 20 -115 1z"/>
<path d="M570 701 c0 -7 -3 -10 -7 -8 -5 3 -13 -1 -19 -7 -9 -10 4 -27 56 -74
l69 -62 21 27 21 27 -23 9 c-12 4 -25 11 -28 16 -15 22 -90 82 -90 72z m75
-70 c53 -56 36 -52 -28 6 l-52 47 55 -57 c30 -31 50 -57 44 -57 -19 0 -117
107 -103 112 19 7 38 -4 84 -51z"/>
<path d="M470 632 c-21 -17 -22 -20 -7 -48 17 -32 71 -86 103 -103 17 -8 25
-7 33 3 14 16 4 47 -12 40 -16 -5 -28 4 -61 48 -16 21 -32 35 -37 32 -12 -7
-11 3 1 27 13 24 8 24 -20 1z"/>
</g>
</svg>

