<?xml version="1.0" encoding="utf-8"?>
<!-- Svg Vector Icons : http://www.onlinewebfonts.com/icon -->
<!DOCTYPE svg PUBLIC "-//W3C//DTD SVG 1.1//EN" "http://www.w3.org/Graphics/SVG/1.1/DTD/svg11.dtd">
<svg version="1.1" xmlns="http://www.w3.org/2000/svg" xmlns:xlink="http://www.w3.org/1999/xlink" x="0px" y="0px" viewBox="0 0 1000 1000" enable-background="new 0 0 1000 1000" xml:space="preserve">
<metadata> Svg Vector Icons : http://www.onlinewebfonts.com/icon </metadata>
<g><path d="M806.3,10H408.2c-25.1,0-56.2,12.9-74,30.6L163.1,211.7c-17.7,17.7-30.6,48.8-30.6,73.9v643.1c0,33.8,27.5,61.3,61.2,61.3h612.5c33.7,0,61.2-27.4,61.2-61.3V71.2C867.5,37.4,840,10,806.3,10z M346.9,114.5v109.8H237.1L346.9,114.5z M806.3,928.7H193.8V285.6h153.1c33.8,0,61.3-27.4,61.3-61.2V71.2h398.1V928.7z M500.1,255h183.8c16.9,0,30.6-13.7,30.6-30.6c0-16.9-13.7-30.6-30.6-30.6H500.1c-16.9,0-30.6,13.7-30.6,30.6C469.4,241.3,483.1,255,500.1,255z M683.8,346.9H316.3c-16.9,0-30.7,13.7-30.7,30.6c0,17,13.8,30.6,30.7,30.6h367.5c16.9,0,30.6-13.7,30.6-30.6C714.4,360.6,700.7,346.9,683.8,346.9z M683.8,500H316.3c-16.9,0-30.7,13.7-30.7,30.6c0,17,13.8,30.7,30.7,30.7h367.5c16.9,0,30.6-13.7,30.6-30.7C714.4,513.7,700.7,500,683.8,500z M683.8,653.1H316.3c-16.9,0-30.7,13.7-30.7,30.7c0,16.9,13.8,30.6,30.7,30.6h367.5c16.9,0,30.6-13.7,30.6-30.6C714.4,666.8,700.7,653.1,683.8,653.1z M683.8,806.2H316.3c-16.9,0-30.7,13.8-30.7,30.7c0,16.8,13.8,30.6,30.7,30.6h367.5c16.9,0,30.6-13.7,30.6-30.6C714.4,820,700.7,806.2,683.8,806.2z"/></g>
</svg>
